<svg xmlns="http://www.w3.org/2000/svg" width="23" height="24" viewBox="0 0 23 24"><g><g><path fill="#575757" d="M6.657 0h9.686C20.014 0 23 3.125 23 6.965v10.072C23 20.877 20.014 24 16.343 24H6.657C2.986 24 0 20.877 0 17.037V6.965C0 3.125 2.986 0 6.657 0zm0 2.063c-2.613 0-4.685 2.169-4.685 4.902v10.072c0 2.733 2.072 4.9 4.685 4.9h9.686c2.613 0 4.686-2.167 4.686-4.9V6.964c0-2.733-2.073-4.902-4.686-4.902zM19.052 5.57c0 .797-.617 1.443-1.38 1.443-.761 0-1.379-.646-1.379-1.443s.618-1.443 1.38-1.443c.762 0 1.379.646 1.379 1.443zM17.409 12c0 3.4-2.658 6.18-5.909 6.18S5.593 15.4 5.593 12 8.249 5.82 11.5 5.82 17.409 8.6 17.409 12zm-9.844 0c0 2.286 1.75 4.116 3.935 4.116s3.937-1.83 3.937-4.116c0-2.286-1.752-4.116-3.937-4.116-2.185 0-3.935 1.83-3.935 4.116z"/></g></g></svg>